<?xml version="1.0" encoding="UTF-8"?>
<svg id="Capa_2" data-name="Capa 2" xmlns="http://www.w3.org/2000/svg" viewBox="0 0 341.68 415">
  <defs>
    <style>
      .cls-1 {
        fill: #fff;
      }

      .cls-2 {
        fill: #00903b;
      }
    </style>
  </defs>
  <g id="Capa_1-2" data-name="Capa 1">
    <path d="M0,0v415h341.68V0H0ZM330.92,10.82l-.36,155.87L257.56,10.88l73.36-.06ZM11.5,13.21c.52-1.1,2.6-2.14,4.6-2.14l222.58.03c4.85,0,9.18,4.17,10.95,7.95l20.68,44.3c.53,1.14.39,4.26-.33,5.2-.73.94-2.99,2.17-4.39,2.17l-76.76.06c-6.6,0-11.77-3.05-14.55-9.06l-5.09-10.99c-.69-1.5-3.58-3.84-5.33-3.83l-43.41.36,16.99,37.16c.89,1.94,4,3.91,6.5,3.91l130.74.04c4.46.01,9.09,3.9,10.88,7.72l45.75,98.11c.43.92.3,3.67-.04,4.61-.42,1.12-2.6,2.8-4.87,2.8H106.14c-6.01.01-10.91-3.59-13.33-8.79l-20.88-44.81c-.43-.92.23-3.94.91-4.67.68-.74,2.61-1.42,4.02-1.42l81,.1c4.38,0,8.77,4.79,10.28,8.07l4.88,10.66c1.29,2.84,4.35,4.94,7.69,4.91l41.3-.35c-5.45-13.55-10.83-24.43-16.56-36.8-1.34-2.9-4.28-4.47-7.71-4.48l-130.64-.07c-4.64,0-8.72-4.98-10.42-8.63L11.3,18.03c-.44-.93-.23-3.9.2-4.82ZM10.98,44.04l76.82,163.06L10.96,371.64l.02-327.6ZM257.86,403.68l72.78-155.62.35,155.85-73.13-.23ZM331.34,220.78l-20.89,44.68c-2.29,4.9-7.45,8.08-12.82,8.08h-77.65c-1.57.01-3.97-1.02-4.63-2.06-3.06-4.85,4.82-13.32,6.4-21.53l-43.68-.17c-1.87-.01-4.35,3.06-5.03,4.53l-52.7,113.5,41.64.62c2.78.05,6.13-1.9,7.22-4.23l5.62-11.91c1.46-3.09,5.89-7.47,9.91-7.48l81.09-.07c1.4,0,3.34.69,4.03,1.41.69.73,1.27,3.72.83,4.66l-21.23,45.53c-1.54,3.29-5.75,7.49-9.85,7.49l-224.41.04c-2.75,0-5.54-3.32-4.16-6.28l81.87-175.62c1.93-4.15,6.11-8.06,11.11-8.06l222.57-.03c1.63,0,3.54.76,4.18,1.53.77.92,1.23,3.99.58,5.37Z"/>
    <path class="cls-1" d="M331.27,198.81c-.42,1.12-2.6,2.8-4.87,2.8H106.14c-6.01.01-10.91-3.59-13.33-8.79l-20.88-44.81c-.43-.92.23-3.94.91-4.67.68-.74,2.61-1.42,4.02-1.42l81,.1c4.38,0,8.77,4.79,10.28,8.07l4.88,10.66c1.29,2.84,4.35,4.94,7.69,4.91l41.3-.35c-5.45-13.55-10.83-24.43-16.56-36.8-1.34-2.9-4.28-4.47-7.71-4.48l-130.64-.07c-4.64,0-8.72-4.98-10.42-8.63L11.3,18.03c-.44-.93-.23-3.9.2-4.82.52-1.1,2.6-2.14,4.6-2.14l222.58.03c4.85,0,9.18,4.17,10.95,7.95l20.68,44.3c.53,1.14.39,4.26-.33,5.2-.73.94-2.99,2.17-4.39,2.17l-76.76.06c-6.6,0-11.77-3.05-14.55-9.06l-5.09-10.99c-.69-1.5-3.58-3.84-5.33-3.83l-43.41.36,16.99,37.16c.89,1.94,4,3.91,6.5,3.91l130.74.04c4.46.01,9.09,3.9,10.88,7.72l45.75,98.11c.43.92.3,3.67-.04,4.61Z"/>
    <path class="cls-1" d="M331.34,220.78l-20.89,44.68c-2.29,4.9-7.45,8.08-12.82,8.08h-77.65c-1.57.01-3.97-1.02-4.63-2.06-3.06-4.85,4.82-13.32,6.4-21.53l-43.68-.17c-1.87-.01-4.35,3.06-5.03,4.53l-52.7,113.5,41.64.62c2.78.05,6.13-1.9,7.22-4.23l5.62-11.91c1.46-3.09,5.89-7.47,9.91-7.48l81.09-.07c1.4,0,3.34.69,4.03,1.41.69.73,1.27,3.72.83,4.66l-21.23,45.53c-1.54,3.29-5.75,7.49-9.85,7.49l-224.41.04c-2.75,0-5.54-3.32-4.16-6.28l81.87-175.62c1.93-4.15,6.11-8.06,11.11-8.06l222.57-.03c1.63,0,3.54.76,4.18,1.53.77.92,1.23,3.99.58,5.37Z"/>
    <polygon class="cls-2" points="330.92 10.82 330.56 166.69 257.56 10.88 330.92 10.82"/>
    <polygon class="cls-2" points="330.99 403.91 257.86 403.68 330.64 248.06 330.99 403.91"/>
    <polygon class="cls-2" points="87.8 207.1 10.96 371.64 10.98 44.04 87.8 207.1"/>
  </g>
</svg>